<svg xmlns="http://www.w3.org/2000/svg" viewBox="0 0 64 64"><path d="M28.6 0c18.6 0 32.9 12.8 32.9 31.8S47.2 64 28.6 64H7.7A7.34 7.34 0 0 1 0 56.3V8a7.59 7.59 0 0 1 7.7-8Z" style="fill: rgb(255, 105, 0); --darkreader-inline-fill: var(--darkreader-text-ff6900, #ff781a);" data-darkreader-inline-fill=""></path><path d="M50 24.9c-.1.8-1 .8-1.4.1-1.3-2.2-3-2.6-5.7-2.8-2-.1-4.4.1-6.6.1a.45.45 0 0 1-.5-.4c.4-1.9 2-5.4 3.7-5.7.8-.1 2.6-.3 3.6-.3 4.6 0 7.1 5.3 6.9 9M24 43a32 32 0 0 0 10.4 1 27.7 27.7 0 0 0 12.9-4.2c-1.5 3.8-7.2 6.2-12.6 6.8 0 .3-.1.5-.1.8a21.6 21.6 0 0 0 9.8-2.8c-1 3.7-6 5.2-10.6 5.5a6 6 0 0 1-.4.8 23 23 0 0 0 6.7-.9C38 53.9 29 56.6 21.4 53A24 24 0 0 0 24 43m25.1-26.6a8.8 8.8 0 0 0-6.3-2.4c-3 0-5.5.8-9.2.9-2.5.1-4.8-5.4-7.8-6.1-1.3-2.9-4.3-3.3-6.1-1.8-1.7-1-4.3-.5-4.4 1.4-1.9-.6-4.4.4-3.3 3-4.7.1-5.5 4.3-2.4 4.7-4.1 2.3-2.2 6.3 1.2 5.5.6 6 3.3 13.8-1.1 15.7-.5.2-2.5.7-6.3-.2L0 36.2v3.1c3.3.8 6.6 1.4 8.7 1.2 5.8-.6 6.1-5.4 5.8-9.6s-1.7-8.9-1.2-12.3l-.2-.2c-2.1 2.2-3.5 1.6-3.7.9-.3-1.4 2.2-3.2 3.6-3.8 0-.1.1-.2.1-.3-1.3.2-2.9 0-3-.9-.1-1.1 2.2-2.2 5.2-1.9.1 0 .1-.1.2-.1l-.6-.3c-.8-.4-1-1.1-.7-1.5a2.14 2.14 0 0 1 1.8-.7 6.7 6.7 0 0 1 2.7.6c.1 0 .1-.1.2-.1-.2-.2-.5-.4-.6-.6a.76.76 0 0 1 .1-1 2.09 2.09 0 0 1 2.4.4l.5.5a.37.37 0 0 0 .3-.1 1.08 1.08 0 0 1-.3-.7.6.6 0 0 1 .4-.8 1.22 1.22 0 0 1 1.2.5 4.9 4.9 0 0 1 .6 1.3 8.3 8.3 0 0 0-6.1 3.1 9.53 9.53 0 0 0-1.2 8.2 59 59 0 0 0 2.9 9v.1c2.4 6.9 7 23.9-15.3 32.9a9.2 9.2 0 0 0 3.7.9h2.3a28.9 28.9 0 0 0 9.9-8.2c10.2 4.5 19.5 2.2 23.5-5.2a9.77 9.77 0 0 0 4.5-7.2 7.48 7.48 0 0 0 1.5-6.5c-.1-.4-.5-.4-1.1-.1-8.3 5-15.6 5.8-24.3 3.2a66 66 0 0 0-1.2-8.1c-.2-3.5.9-5.2 7.3-3.1 4.2 1.1 6.1 3 7.6 4 .7.5 1.6 1.1 2.1.7.3-.2.4-.8.4-1.5a16.7 16.7 0 0 0-1.8-6.3 52 52 0 0 1 5.7 0 3.22 3.22 0 0 1 2.9 2.2c.7 2 4.6 1.5 4.9-.2.6-3.5.8-8.1-2.6-11.3m-44.4 30a37 37 0 0 0-4.7 0v2.1c2.7-.6 4.4-.9 4.4-.9Z"></path><path d="M29.7 24.5c-3.5-.8-7.4-1.8-9.4-4.8 0-.1-.1-.1-.2-.1a.1.1 0 0 0-.1.1.9.9 0 0 0 .1.5l-.3.1a2 2 0 0 1-.1-2.4 2.57 2.57 0 0 1 3.3-.3l-.1.3a2.2 2.2 0 0 0-1.4.1.54.54 0 0 0-.2.8C23 22 28 22.7 33.9 22.2a.71.71 0 0 0 .8-.6 11.33 11.33 0 0 1 2.8-5.3 15.7 15.7 0 0 1-2.9.2c-3 .2-4.8-.2-5.3-.6l.1-.3c.3.1.7.1.7 0s0-.2-.1-.3c-.6-.5-3.2-3.2-3.2-3.2-.3-2.3-3.6-2.3-4.9-.1l-.4-.1a3.3 3.3 0 0 1 .5-1.2 6.27 6.27 0 0 0-4.6 5.4C16.2 26.3 31.7 23.9 36.1 28c.1.1.3.4.4.2s-1.8-2.6-6.8-3.7m-5.4-12.2c.7-.2 1.8.5 2.3 1.6s.4 2.2-.3 2.5-1.8-.5-2.3-1.6c-.1-.2-.1-.3-.2-.5h.1a.66.66 0 0 0 .7.2c.3-.2.2-.6 0-1s-.5-.6-.8-.6l-.1-.1a1.33 1.33 0 0 1 .6-.5m23 27.5A27.7 27.7 0 0 1 34.4 44 35.4 35.4 0 0 1 24 43a15.3 15.3 0 0 1-.3 3 41.6 41.6 0 0 0 8.9 1.1 14.9 14.9 0 0 1-4.3 7.6c5.4.2 10.3-1.9 11.8-4.7a20.4 20.4 0 0 1-6.7.9c.1-.3.3-.5.4-.8 4.6-.2 9.6-1.7 10.6-5.5a21.6 21.6 0 0 1-9.8 2.8c0-.3.1-.5.1-.8 5.4-.7 11.1-3 12.6-6.8" style="fill: rgb(255, 255, 255); --darkreader-inline-fill: var(--darkreader-text-ffffff, #e8e6e3);" data-darkreader-inline-fill=""></path></svg>